<?xml version="1.0" encoding="utf-8"?>
<!-- Generator: Adobe Illustrator 16.0.0, SVG Export Plug-In . SVG Version: 6.00 Build 0)  -->
<!DOCTYPE svg PUBLIC "-//W3C//DTD SVG 1.1//EN" "http://www.w3.org/Graphics/SVG/1.1/DTD/svg11.dtd">
<svg version="1.1" id="Layer_1" xmlns="http://www.w3.org/2000/svg" xmlns:xlink="http://www.w3.org/1999/xlink" x="0px" y="0px"
	 width="960px" height="480px" viewBox="0 0 960 480" enable-background="new 0 0 960 480" xml:space="preserve">
<rect fill="#DCDCDC" width="960" height="480"/>
<g>
	<rect id="rect11983" x="43.98" y="113.675" fill="#1A1A1A" width="874.646" height="293.563"/>
	<path id="rect12203" fill="#808080" d="M329.617,103.235h230.422c8.06,0,14.596,6.534,14.596,14.595v15.925
		c0,8.061-6.536,14.595-14.596,14.595H329.617c-8.06,0-14.595-6.534-14.595-14.595v-15.925
		C315.022,109.77,321.557,103.235,329.617,103.235z"/>
	<path id="rect13178" fill="#808080" d="M329.617,378.361h230.422c8.06,0,14.596,6.535,14.596,14.596v15.925
		c0,8.062-6.536,14.596-14.596,14.596H329.617c-8.06,0-14.595-6.534-14.595-14.596v-15.925
		C315.022,384.896,321.557,378.361,329.617,378.361z"/>
	<path id="rect11976" fill="#DCDCDC" d="M32.256,50.608c-6.777,0-12.255,5.478-12.255,12.254v354.2
		c0,6.776,5.479,12.255,12.255,12.253h895.789c6.776,0,11.955-5.477,11.955-12.253v-354.2c0-6.776-5.179-12.254-11.955-12.254
		H32.256L32.256,50.608z M43.913,113.675H918.79v293.513H43.913V113.675L43.913,113.675z"/>
	<path id="rect2235" stroke="#FFFFFF" stroke-width="1.6523" stroke-linecap="round" d="M151.606,188.863
		c-4.037,0-7.085,3.331-7.085,7.369v50.73h-50.73c-4.038,0-7.37,3.332-7.37,7.369v40.812c0,4.037,3.332,7.367,7.37,7.367h50.73
		v50.731c0,4.037,3.048,7.086,7.085,7.086h41.095c4.037,0,7.085-3.048,7.085-7.086V302.51h50.731c4.037,0,7.369-3.33,7.369-7.367
		v-40.812c0-4.037-3.331-7.369-7.369-7.369h-50.731v-50.73c0-4.038-3.048-7.369-7.085-7.369H151.606z"/>
	<path id="rect3757" fill="#1A1A1A" d="M153.023,195.251c-1.277,0-2.264,0.987-2.264,2.265v55.368H95.391
		c-1.277,0-2.264,0.986-2.264,2.264v39.007c0,1.277,0.987,2.366,2.264,2.366h55.368v55.267c0,1.276,0.987,2.367,2.264,2.367h39.108
		c1.277,0,2.264-1.091,2.264-2.367v-55.267h55.368c1.277,0,2.265-1.089,2.265-2.366v-39.007c0-1.277-0.987-2.264-2.265-2.264
		h-55.368v-55.368c0-1.277-0.986-2.265-2.264-2.265H153.023z"/>
	<path id="rect11986" fill="#808080" d="M329.617,161.297h230.422c8.06,0,14.596,6.534,14.596,14.595v15.926
		c0,8.06-6.536,14.595-14.596,14.595H329.617c-8.06,0-14.595-6.535-14.595-14.595v-15.926
		C315.022,167.832,321.557,161.297,329.617,161.297z"/>
	<g id="g12011" transform="matrix(2.9042238,0,0,2.9042238,-597.29495,-994.37335)">
		<path id="rect11997" fill="#DDDDDD" d="M419.715,434.186h30.935c1.364,0,2.47,1.106,2.47,2.47v30.935
			c0,1.364-1.106,2.47-2.47,2.47h-30.935c-1.365,0-2.471-1.106-2.471-2.47v-30.935C417.245,435.292,418.35,434.186,419.715,434.186z
			"/>
		<path id="path12001" fill="#FF0000" d="M449.883,452.274c0,8.12-6.583,14.702-14.702,14.702c-8.12,0-14.702-6.583-14.702-14.702
			s6.582-14.702,14.702-14.702C443.3,437.572,449.883,444.154,449.883,452.274z"/>
	</g>
	<g id="g12007" transform="matrix(2.9042238,0,0,2.9042238,-597.29495,-994.37335)">
		<path id="rect12003" fill="#DDDDDD" d="M460.454,434.186h30.935c1.364,0,2.47,1.106,2.47,2.47v30.935
			c0,1.364-1.106,2.47-2.47,2.47h-30.935c-1.365,0-2.471-1.106-2.471-2.47v-30.935C457.983,435.292,459.089,434.186,460.454,434.186
			z"/>
		<path id="path12005" fill="#FF0000" d="M490.635,452.274c0,8.12-6.583,14.702-14.702,14.702c-8.12,0-14.702-6.583-14.702-14.702
			s6.582-14.702,14.702-14.702C484.053,437.572,490.635,444.154,490.635,452.274z"/>
	</g>
	<path id="rect12205" fill="#808080" d="M329.617,219.392h230.422c8.06,0,14.596,6.534,14.596,14.595v15.925
		c0,8.061-6.536,14.596-14.596,14.596H329.617c-8.06,0-14.595-6.535-14.595-14.596v-15.925
		C315.022,225.926,321.557,219.392,329.617,219.392z"/>
	<path id="rect12199" fill="#DDDDDD" d="M331.289,276.728h227.124c8.984,0,16.266,7.283,16.266,16.268v53.129
		c0,8.984-7.281,16.268-16.266,16.268H331.289c-8.984,0-16.267-7.283-16.267-16.268v-53.129
		C315.022,284.012,322.305,276.728,331.289,276.728z"/>
	<path id="rect12207" fill="none" stroke="#808080" stroke-width="1.4584" stroke-linecap="round" d="M338.985,284.896h211.774
		c7.36,0,13.326,5.967,13.326,13.325v43.521c0,7.359-5.966,13.324-13.326,13.324H338.985c-7.359,0-13.325-5.965-13.325-13.324
		v-43.521C325.66,290.863,331.625,284.896,338.985,284.896z"/>
	<path id="rect4247" d="M359.264,306.73h44.188c7.938,0,14.371,6.435,14.371,14.372l0,0c0,7.937-6.434,14.371-14.371,14.371h-44.188
		c-7.937,0-14.371-6.435-14.371-14.371l0,0C344.893,313.165,351.327,306.73,359.264,306.73z"/>
	<path id="rect5332" d="M485.531,306.73h44.188c7.939,0,14.372,6.435,14.372,14.372l0,0c0,7.937-6.433,14.371-14.372,14.371h-44.188
		c-7.938,0-14.372-6.435-14.372-14.371l0,0C471.16,313.165,477.594,306.73,485.531,306.73z"/>
	<g id="text2887">
		<path id="path2921" fill="#FF0000" d="M329.45,250.533h11.763c3.361,0,5.041-1.541,5.041-4.623c0-3.08-1.68-4.621-5.041-4.621
			h-8.402v-2.519h13.443v-3.361h-11.763c-3.361,0-5.041,1.562-5.041,4.688c0,3.037,1.68,4.554,5.041,4.554h8.402v2.521H329.45
			V250.533z"/>
		<path id="path2923" fill="#FF0000" d="M364.741,250.533h-11.763c-3.36,0-5.041-1.681-5.041-5.043v-10.082h16.804v3.36h-13.443
			v2.52h13.443v3.36h-13.443v0.841c0,1.12,0.56,1.682,1.68,1.682h11.763V250.533z"/>
		<path id="path2925" fill="#FF0000" d="M366.4,235.389v10.083c0,3.36,1.68,5.041,5.041,5.041h11.764v-3.36h-11.764
			c-1.12,0-1.68-0.561-1.68-1.681v-10.083H366.4z"/>
		<path id="path2927" fill="#FF0000" d="M401.691,250.533h-11.763c-3.361,0-5.041-1.681-5.041-5.043v-10.082h16.804v3.36h-13.443
			v2.52h13.443v3.36h-13.443v0.841c0,1.12,0.561,1.682,1.68,1.682h11.763V250.533z"/>
		<path id="path2929" fill="#FF0000" d="M420.182,250.533h-11.763c-3.361,0-5.042-1.681-5.042-5.043v-5.041
			c0-3.36,1.681-5.041,5.042-5.041h11.763v3.36h-11.763c-1.121,0-1.681,0.56-1.681,1.68v5.041c0,1.12,0.56,1.682,1.681,1.682h11.763
			V250.533z"/>
		<path id="path2931" fill="#FF0000" d="M421.871,235.389h16.805v3.361h-6.722v11.763h-3.36V238.75h-6.722V235.389z"/>
	</g>
	<g id="text2891">
		<path id="path2934" fill="#FF0000" d="M468.97,250.533h11.763c3.361,0,5.038-1.541,5.038-4.623c0-3.08-1.677-4.621-5.038-4.621
			h-8.403v-2.519h13.441v-3.361h-11.76c-3.361,0-5.041,1.562-5.041,4.688c0,3.036,1.68,4.553,5.041,4.553h8.402v2.521H468.97
			V250.533z"/>
		<path id="path2936" fill="#FF0000" d="M487.428,235.389h16.806v3.361h-6.721v11.763h-3.361V238.75h-6.724V235.389z"/>
		<path id="path2938" fill="#FF0000" d="M519.372,242.961v-2.521c0-1.122-0.561-1.682-1.68-1.682h-6.721
			c-1.121,0-1.683,0.56-1.683,1.682v2.521H519.372z M509.289,246.321v4.201h-3.358V240.44c0-3.361,1.68-5.042,5.041-5.042h6.721
			c3.362,0,5.041,1.681,5.041,5.042v10.082h-3.361v-4.201H509.289z"/>
		<path id="path2940" fill="#FF0000" d="M527.758,241.271h10.082v-2.521h-10.082V241.271z M527.758,244.632v5.881h-3.359v-15.123
			h11.762c3.362,0,5.041,1.535,5.041,4.604c0,1.456-0.24,2.526-0.722,3.209c0.481,0.796,0.722,1.832,0.722,3.109v4.2h-3.361v-4.2
			c0-1.12-0.561-1.681-1.68-1.681H527.758z"/>
		<path id="path2942" fill="#FF0000" d="M542.901,235.389h16.803v3.361h-6.72v11.763h-3.362V238.75h-6.721V235.389z"/>
	</g>
	<g id="text2895">
		<path id="path2945" fill="#FF0000" d="M707.092,386.003h12.062v-3.016h-12.062V386.003z M707.092,393.038h12.062v-3.016h-12.062
			V393.038z M703.072,397.057v-18.091h14.072c4.02,0,6.028,1.821,6.028,5.467c0,1.488-0.32,2.681-0.963,3.579
			c0.643,0.884,0.963,2.07,0.963,3.557c0,3.658-2.009,5.488-6.028,5.488H703.072z"/>
	</g>
	<g id="text2903">
		<path id="path2948" fill="#FF0000" d="M837.509,388.768v-3.016c0-1.34-0.67-2.01-2.009-2.01h-8.042
			c-1.339,0-2.008,0.67-2.008,2.01v3.016H837.509z M825.45,392.788v5.026h-4.022v-12.062c0-4.019,2.011-6.028,6.03-6.028h8.042
			c4.02,0,6.028,2.01,6.028,6.028v12.062h-4.02v-5.026H825.45z"/>
	</g>
	<path id="path2950" fill="none" stroke="#000000" stroke-width="0.5" d="M114.985,258.516l-8.233,8.233l-8.233,8.233l8.233,8.234
		l8.233,8.232v-4.94h16.466v-23.054h-16.466V258.516z"/>
	<path id="path3727" fill="none" stroke="#000000" stroke-width="0.5" d="M229.988,258.516l8.233,8.233l8.233,8.233l-8.233,8.234
		l-8.233,8.232v-4.94h-16.467v-23.054h16.467V258.516z"/>
	<path id="path3729" fill="none" stroke="#000000" stroke-width="0.5" d="M188.789,216.922l-8.233-8.233l-8.233-8.233l-8.233,8.233
		l-8.233,8.233h4.94v16.467h23.054v-16.467H188.789z"/>
	<path id="path3731" fill="none" stroke="#000000" stroke-width="0.5" d="M188.789,333.671l-8.233,8.233l-8.233,8.233l-8.233-8.233
		l-8.233-8.233h4.94v-16.467h23.054v16.467H188.789z"/>
	<path id="path3763" fill="none" stroke="#000000" stroke-width="0.7366" d="M192.351,274.71
		c0.007,10.913-8.833,19.766-19.747,19.773c-10.913,0.007-19.766-8.835-19.773-19.747c0-0.009,0-0.018,0-0.026
		c-0.007-10.913,8.834-19.766,19.748-19.772c10.913-0.008,19.765,8.833,19.772,19.746
		C192.351,274.692,192.351,274.701,192.351,274.71z"/>
	<path id="rect3789" fill="#1A1A1A" d="M363.052,309.53h36.666c7.938,0,14.372,5.184,14.372,11.578l0,0
		c0,6.396-6.434,11.579-14.372,11.579h-36.666c-7.937,0-14.371-5.184-14.371-11.579l0,0
		C348.681,314.714,355.115,309.53,363.052,309.53z"/>
	<path id="rect3791" fill="#1A1A1A" d="M489.286,309.53h36.665c7.937,0,14.372,5.184,14.372,11.578l0,0
		c0,6.396-6.436,11.579-14.372,11.579h-36.665c-7.937,0-14.372-5.184-14.372-11.579l0,0
		C474.914,314.714,481.35,309.53,489.286,309.53z"/>
</g>
<rect id="dpad" x="18" y="119" opacity="0.5" fill="none" width="308" height="308"/>
<rect id="button-select" x="340" y="280" opacity="0.5" fill="none" width="83" height="80"/>
<rect id="button-start" x="466" y="280" opacity="0.5" fill="none" width="83" height="80"/>
<rect id="button-b" x="612" y="263" opacity="0.5" fill="none" width="112" height="112"/>
<rect id="button-a" x="729" y="263" opacity="0.5" fill="none" width="112" height="112"/>
</svg>
