<?xml version="1.0" encoding="utf-8"?>
<!-- Generator: Adobe Illustrator 16.0.0, SVG Export Plug-In . SVG Version: 6.00 Build 0)  -->
<!DOCTYPE svg PUBLIC "-//W3C//DTD SVG 1.1//EN" "http://www.w3.org/Graphics/SVG/1.1/DTD/svg11.dtd">
<svg version="1.1" id="Layer_1" xmlns="http://www.w3.org/2000/svg" xmlns:xlink="http://www.w3.org/1999/xlink" x="0px" y="0px"
	 width="960px" height="480px" viewBox="0 0 960 480" enable-background="new 0 0 960 480" xml:space="preserve">
<g>
	<rect fill="#F2F2F0" width="960" height="480"/>
	<g>
		
			<radialGradient id="path3212_1_" cx="130.2983" cy="445.8145" r="207.2791" gradientTransform="matrix(0.827 0 0 -0.827 90.1494 619.7085)" gradientUnits="userSpaceOnUse">
			<stop  offset="0" style="stop-color:#000000"/>
			<stop  offset="0.3889" style="stop-color:#DCDCDC"/>
			<stop  offset="1" style="stop-color:#EEEEE9"/>
		</radialGradient>
		
			<radialGradient id="path3212_2_" cx="130.2983" cy="445.8145" r="206.0421" gradientTransform="matrix(0.827 0 0 -0.827 90.1494 619.7085)" gradientUnits="userSpaceOnUse">
			<stop  offset="0" style="stop-color:#F3F3F1"/>
			<stop  offset="0.94" style="stop-color:#7F7F7E"/>
			<stop  offset="1" style="stop-color:#E6E6E3"/>
		</radialGradient>
		
			<path id="path3212" sodipodi:ry="96" sodipodi:rx="96" sodipodi:cy="300" sodipodi:cx="170" sodipodi:type="arc" fill="url(#path3212_1_)" stroke="url(#path3212_2_)" stroke-width="3.3333" d="
			M367.91,251.007c0,93.889-76.112,169.999-170,169.999s-170-76.11-170-169.999c0-93.888,76.112-169.999,170-169.999
			S367.91,157.119,367.91,251.007z"/>
		
			<path id="path3214" sodipodi:ry="152" sodipodi:rx="152" sodipodi:cy="301" sodipodi:cx="621" sodipodi:type="arc" fill="#777F82" d="
			M918.716,252.125c0,93.854-76.083,169.937-169.937,169.937c-93.853,0-169.937-76.083-169.937-169.937
			c0-93.853,76.084-169.937,169.937-169.937C842.633,82.188,918.716,158.272,918.716,252.125z"/>
		<path id="rect3217" fill="#F4F4F1" stroke="#FDFDFA" stroke-width="1" d="M652.362,216.659l68.777-68.777
			c15.719-15.717,39.963-16.956,54.153-2.766l0,0c14.19,14.188,12.95,38.434-2.768,54.151l-68.777,68.777
			c-15.717,15.719-39.963,16.958-54.153,2.768l0,0C635.406,256.622,636.645,232.378,652.362,216.659z"/>
		<g id="use3219" transform="translate(80,75)">
			<path id="rect3217_1_" fill="#F4F4F1" stroke="#FDFDFA" stroke-width="1" d="M741.802,300.51l68.779-68.777
				c15.718-15.718,39.963-16.957,54.151-2.766l0,0c14.19,14.189,12.952,38.434-2.766,54.152l-68.778,68.777
				c-15.718,15.719-39.962,16.958-54.152,2.768l0,0C724.846,340.473,726.085,316.229,741.802,300.51z"/>
		</g>
		
			<path id="path3235" sodipodi:ry="27.5" sodipodi:rx="27.5" sodipodi:cy="298" sodipodi:cx="542.5" sodipodi:type="arc" fill="#1A1A1A" stroke="#EBEBE8" stroke-width="0.9524" d="
			M706.714,245.418c0,17.828-14.452,32.282-32.282,32.282c-17.829,0-32.282-14.454-32.282-32.282
			c0-17.83,14.453-32.283,32.282-32.283C692.262,213.135,706.714,227.588,706.714,245.418z"/>
		
			<linearGradient id="path3237_1_" gradientUnits="userSpaceOnUse" x1="705.9141" y1="417.4238" x2="705.9141" y2="536.4688" gradientTransform="matrix(0.684 0 0 -0.684 191.5879 569.2759)">
			<stop  offset="0" style="stop-color:#00DEA5"/>
			<stop  offset="1" style="stop-color:#00F8B9"/>
		</linearGradient>
		
			<path id="path3237" sodipodi:ry="27.5" sodipodi:rx="27.5" sodipodi:cy="298" sodipodi:cx="542.5" sodipodi:type="arc" fill="url(#path3237_1_)" stroke="#00AB7F" stroke-width="2.1053" d="
			M703.641,245.418c0,16.13-13.077,29.207-29.209,29.207c-16.131,0-29.207-13.077-29.207-29.207
			c0-16.132,13.076-29.209,29.207-29.209C690.563,216.209,703.641,229.286,703.641,245.418z"/>
		
			<path id="path3245" sodipodi:ry="27.5" sodipodi:rx="27.5" sodipodi:cy="298" sodipodi:cx="542.5" sodipodi:type="arc" fill="#1A1A1A" stroke="#EBEBE8" stroke-width="0.9524" d="
			M796.714,330.386c0,17.828-14.453,32.282-32.282,32.282s-32.283-14.454-32.283-32.282c0-17.83,14.454-32.282,32.283-32.282
			S796.714,312.556,796.714,330.386z"/>
		
			<path id="path3247" sodipodi:ry="27.5" sodipodi:rx="27.5" sodipodi:cy="298" sodipodi:cx="542.5" sodipodi:type="arc" fill="#FFBB58" stroke="#BA853D" stroke-width="2.1053" d="
			M793.639,330.386c0,16.131-13.076,29.207-29.207,29.207c-16.132,0-29.208-13.076-29.208-29.207
			c0-16.132,13.076-29.209,29.208-29.209C780.562,301.177,793.639,314.254,793.639,330.386z"/>
		
			<path id="path3251" sodipodi:ry="27.5" sodipodi:rx="27.5" sodipodi:cy="298" sodipodi:cx="542.5" sodipodi:type="arc" fill="#1A1A1A" stroke="#EBEBE8" stroke-width="0.9524" d="
			M872.179,254.361c0,17.828-14.453,32.282-32.281,32.282c-17.83,0-32.284-14.454-32.284-32.282
			c0-17.83,14.454-32.283,32.284-32.283C857.726,222.079,872.179,236.532,872.179,254.361z"/>
		
			<path id="path3253" sodipodi:ry="27.5" sodipodi:rx="27.5" sodipodi:cy="298" sodipodi:cx="542.5" sodipodi:type="arc" fill="#FF4856" stroke="#C72B3E" stroke-width="2.1053" d="
			M869.104,254.361c0,16.131-13.077,29.207-29.207,29.207c-16.132,0-29.209-13.076-29.209-29.207
			c0-16.131,13.077-29.209,29.209-29.209C856.027,225.152,869.104,238.23,869.104,254.361z"/>
		
			<path id="path3257" sodipodi:ry="27.5" sodipodi:rx="27.5" sodipodi:cy="298" sodipodi:cx="542.5" sodipodi:type="arc" fill="#1A1A1A" stroke="#EBEBE8" stroke-width="0.9524" d="
			M781.621,169.951c0,17.83-14.454,32.283-32.282,32.283c-17.83,0-32.283-14.453-32.283-32.283
			c0-17.828,14.453-32.282,32.283-32.282C767.167,137.669,781.621,152.123,781.621,169.951z"/>
		
			<path id="path3259" sodipodi:ry="27.5" sodipodi:rx="27.5" sodipodi:cy="298" sodipodi:cx="542.5" sodipodi:type="arc" fill="#0075FA" stroke="#0054B3" stroke-width="2.1053" d="
			M778.546,169.951c0,16.132-13.076,29.209-29.207,29.209c-16.132,0-29.209-13.077-29.209-29.209
			c0-16.131,13.077-29.207,29.209-29.207C765.47,140.744,778.546,153.82,778.546,169.951z"/>
		<g id="g3574" transform="translate(14,0)">
			<path id="rect3307" fill="#1A1A1A" stroke="#E2E2DF" stroke-width="1.8364" d="M368.839,298.143l42.451-42.451
				c3.207-3.207,8.408-3.207,11.614,0l3.785,3.784c3.207,3.208,3.207,8.407,0,11.614l-42.451,42.451
				c-3.208,3.208-8.407,3.208-11.614,0l-3.785-3.783C365.632,306.55,365.632,301.35,368.839,298.143z"/>
			
				<radialGradient id="rect3309_1_" cx="212.1587" cy="1036.4727" r="51.1882" gradientTransform="matrix(0.8907 -0.896 -0.0968 -0.0962 308.9991 574.5021)" gradientUnits="userSpaceOnUse">
				<stop  offset="0" style="stop-color:#899194"/>
				<stop  offset="1" style="stop-color:#5E6667"/>
				<stop  offset="1" style="stop-color:#515759"/>
			</radialGradient>
			<path id="rect3309" fill="url(#rect3309_1_)" stroke="#252A2A" stroke-width="1.215" d="M370.571,299.338l41.743-41.744
				c2.598-2.597,6.81-2.597,9.408,0l3.064,3.065c2.598,2.599,2.598,6.81,0,9.407l-41.743,41.743c-2.597,2.598-6.809,2.598-9.406,0
				l-3.066-3.064C367.973,306.147,367.973,301.935,370.571,299.338z"/>
		</g>
		<path id="rect3221" sodipodi:nodetypes="ccccccccccccccccccccc" fill="#1A1A1A" stroke="#8E979E" stroke-width="0.9381" d="
			M172.086,135.313c-6.868,0-12.396,5.529-12.396,12.396v65.079H94.612c-6.869,0-12.397,5.529-12.397,12.396v51.647
			c0,6.866,5.528,12.396,12.397,12.396h65.078v65.078c0,6.869,5.528,12.396,12.396,12.396h51.649
			c6.867,0,12.396-5.526,12.396-12.396v-65.078h65.079c6.866,0,12.395-5.529,12.395-12.396v-51.647
			c0-6.867-5.529-12.396-12.395-12.396h-65.079v-65.079c0-6.866-5.529-12.396-12.396-12.396H172.086z"/>
		<path id="path3319" sodipodi:nodetypes="ccccccccccccccccccccc" fill="#4D5254" stroke="#63686B" stroke-width="1.9144" d="
			M176.716,146.042c-5.439,0-9.818,4.956-9.818,11.11v62.55h-63.785c-5.439,0-9.819,4.956-9.819,11.109v40.33
			c0,6.155,4.379,11.109,9.819,11.109h63.785v62.898c0,6.155,4.379,11.11,9.818,11.11h41.403c5.439,0,9.818-4.955,9.818-11.11
			v-62.898h65.034c5.439,0,9.818-4.954,9.818-11.109v-40.33c0-6.154-4.379-11.109-9.818-11.109h-63.99v-62.55
			c0-6.154-4.378-11.11-9.818-11.11H176.716z"/>
		
			<radialGradient id="path3924_4_" cx="174.6836" cy="556.2969" r="35.6032" gradientTransform="matrix(0.72 0 0 -0.7402 71.3999 591.3706)" gradientUnits="userSpaceOnUse">
			<stop  offset="0" style="stop-color:#303638"/>
			<stop  offset="1" style="stop-color:#424A4F"/>
		</radialGradient>
		
			<path id="path3924" sodipodi:nodetypes="ccccsccczcccz" fill="url(#path3924_4_)" stroke="#4F5457" stroke-width="2.0611" stroke-opacity="0.8627" d="
			M173.845,200.944c-2.183-4.379,1.309-11.267,1.309-11.267l7.275-14.593l7.276-14.593c0,0,2.91-5.638,7.275-5.638
			c4.365,0,7.275,5.638,7.275,5.638l7.276,14.593l7.276,14.593c0,0,3.933,6.633,1.751,11.011c-2.183,4.378-9.027,3.582-9.027,3.582
			H196.98h-14.551C182.429,204.271,176.027,205.323,173.845,200.944z"/>
		<g id="use3931" transform="matrix(1,0,0,-1,0,598.76219)">
			
				<radialGradient id="path3924_9_" cx="174.6836" cy="311.751" r="35.6054" gradientTransform="matrix(0.72 0 0 0.7402 71.3999 89.7388)" gradientUnits="userSpaceOnUse">
				<stop  offset="0" style="stop-color:#303638"/>
				<stop  offset="1" style="stop-color:#424A4F"/>
			</radialGradient>
			
				<path id="path3924_1_" sodipodi:nodetypes="ccccsccczcccz" fill="url(#path3924_9_)" stroke="#4F5457" stroke-width="2.0611" stroke-opacity="0.8627" d="
				M173.845,299.16c-2.183,4.38,1.309,11.268,1.309,11.268l7.275,14.594l7.276,14.592c0,0,2.91,5.638,7.275,5.638
				c4.365,0,7.275-5.638,7.275-5.638l7.276-14.592l7.276-14.594c0,0,3.933-6.634,1.751-11.01c-2.183-4.378-9.027-3.584-9.027-3.584
				H196.98h-14.551C182.429,295.834,176.027,294.783,173.845,299.16z"/>
		</g>
		<g id="use3933" transform="matrix(0,-1,1,0,-52.533083,546.22911)">
			
				<radialGradient id="path3924_10_" cx="547.542" cy="674.4541" r="35.6065" gradientTransform="matrix(0 -0.72 -0.7402 0 625.9468 644.2847)" gradientUnits="userSpaceOnUse">
				<stop  offset="0" style="stop-color:#303638"/>
				<stop  offset="1" style="stop-color:#424A4F"/>
			</radialGradient>
			
				<path id="path3924_2_" sodipodi:nodetypes="ccccsccczcccz" fill="url(#path3924_10_)" stroke="#4F5457" stroke-width="2.0611" stroke-opacity="0.8627" d="
				M148.063,273.381c-4.377,2.183-11.266-1.309-11.266-1.309l-14.593-7.277l-14.594-7.274c0,0-5.636-2.91-5.636-7.277
				c0-4.363,5.636-7.274,5.636-7.274l14.594-7.276l14.593-7.274c0,0,6.633-3.934,11.011-1.75c4.377,2.181,3.583,9.024,3.583,9.024
				v14.551v14.552C151.391,264.795,152.442,271.198,148.063,273.381z"/>
		</g>
		<g id="layer3" inkscape:label="Controller" sodipodi:insensitive="true" inkscape:groupmode="layer">
			<g id="use3935" transform="matrix(0,-1,1,0,-52.533083,546.22911)">
				
					<radialGradient id="path3924_11_" cx="547.542" cy="193.5928" r="35.6077" gradientTransform="matrix(0 -0.72 0.7402 0 124.3149 644.2847)" gradientUnits="userSpaceOnUse">
					<stop  offset="0" style="stop-color:#303638"/>
					<stop  offset="1" style="stop-color:#424A4F"/>
				</radialGradient>
				
					<path id="path3924_3_" sodipodi:nodetypes="ccccsccczcccz" fill="url(#path3924_11_)" stroke="#4F5457" stroke-width="2.0611" stroke-opacity="0.8627" d="
					M246.28,273.381c4.378,2.183,11.266-1.309,11.266-1.309l14.594-7.277l14.593-7.274c0,0,5.636-2.91,5.636-7.277
					c0-4.363-5.636-7.274-5.636-7.274l-14.593-7.276l-14.594-7.274c0,0-6.631-3.934-11.01-1.75
					c-4.378,2.181-3.583,9.024-3.583,9.024v14.551v14.552C242.953,264.795,241.903,271.198,246.28,273.381z"/>
			</g>
			
				<radialGradient id="path3943_1_" cx="329.5981" cy="414.4316" r="23.8833" gradientTransform="matrix(1.1728 0 0 -1.1728 -188.6445 737.0527)" gradientUnits="userSpaceOnUse">
				<stop  offset="0" style="stop-color:#303638"/>
				<stop  offset="1" style="stop-color:#424A4F"/>
			</radialGradient>
			
				<path id="path3943" sodipodi:ry="10.429825" sodipodi:rx="10.429825" sodipodi:cy="299.30283" sodipodi:cx="306.00046" sodipodi:type="arc" fill="url(#path3943_1_)" stroke="#4F5457" stroke-width="1.45" stroke-opacity="0.8617" d="
				M224.101,251.007c0,14.466-11.726,26.191-26.191,26.191c-14.465,0-26.191-11.726-26.191-26.191
				c0-14.465,11.726-26.192,26.191-26.192C212.375,224.815,224.101,236.542,224.101,251.007L224.101,251.007z"/>
			<g id="g4168" transform="translate(112.9467,0)">
				<path id="rect4170" fill="#1A1A1A" stroke="#E2E2DF" stroke-width="1.8364" d="M376.168,298.143l42.451-42.451
					c3.207-3.207,8.408-3.207,11.615,0l3.783,3.784c3.207,3.208,3.207,8.407,0,11.614l-42.451,42.451
					c-3.207,3.208-8.407,3.208-11.614,0l-3.784-3.783C372.96,306.55,372.96,301.35,376.168,298.143z"/>
				
					<radialGradient id="rect4172_1_" cx="140.1593" cy="645.6992" r="51.1759" gradientTransform="matrix(0.5091 -0.5091 -0.1312 -0.1312 418.3911 440.8016)" gradientUnits="userSpaceOnUse">
					<stop  offset="0" style="stop-color:#899194"/>
					<stop  offset="1" style="stop-color:#5E6667"/>
					<stop  offset="1" style="stop-color:#515759"/>
				</radialGradient>
				<path id="rect4172" fill="url(#rect4172_1_)" stroke="#252A2A" stroke-width="1.215" d="M377.899,299.338l41.743-41.744
					c2.598-2.597,6.81-2.597,9.407,0l3.064,3.065c2.598,2.599,2.598,6.81,0,9.407l-41.742,41.743c-2.598,2.598-6.809,2.598-9.406,0
					l-3.066-3.064C375.301,306.147,375.301,301.935,377.899,299.338z"/>
			</g>
		</g>
		<g id="layer4" inkscape:label="Text" sodipodi:insensitive="true" inkscape:groupmode="layer">
			<g id="text3161">
				<path id="path3164_9_" inkscape:connector-curvature="0" fill="#474B4C" d="M385.161,344.25c-0.758,0-1.421-0.066-1.993-0.2
					c-0.564-0.14-1.044-0.341-1.44-0.604c-0.396-0.267-0.714-0.593-0.952-0.979c-0.233-0.39-0.396-0.838-0.49-1.345l1.546-0.323
					c0.076,0.361,0.196,0.675,0.358,0.943c0.164,0.269,0.382,0.493,0.655,0.674c0.274,0.174,0.611,0.305,1.013,0.393
					c0.401,0.086,0.876,0.13,1.424,0.13c0.571,0,1.083-0.038,1.538-0.113c0.453-0.081,0.838-0.213,1.152-0.393
					c0.32-0.187,0.565-0.425,0.734-0.716c0.168-0.298,0.253-0.664,0.253-1.102c0-0.297-0.049-0.55-0.149-0.76
					c-0.099-0.209-0.27-0.396-0.516-0.56c-0.244-0.168-0.576-0.325-0.995-0.471c-0.414-0.152-0.936-0.314-1.563-0.488
					c-0.512-0.14-0.996-0.295-1.45-0.465c-0.449-0.174-0.841-0.387-1.18-0.637c-0.338-0.256-0.605-0.565-0.804-0.927
					c-0.198-0.36-0.297-0.804-0.297-1.326c0-0.611,0.136-1.13,0.411-1.555c0.279-0.432,0.649-0.784,1.108-1.057
					c0.467-0.274,0.997-0.472,1.591-0.595c0.599-0.129,1.219-0.192,1.861-0.192c0.704,0,1.317,0.063,1.842,0.192
					c0.529,0.128,0.978,0.308,1.345,0.542c0.373,0.227,0.67,0.5,0.892,0.821c0.22,0.32,0.375,0.669,0.462,1.048l-1.512,0.444
					c-0.086-0.279-0.209-0.529-0.367-0.751c-0.156-0.221-0.358-0.407-0.602-0.56c-0.244-0.155-0.538-0.275-0.882-0.357
					c-0.337-0.08-0.734-0.121-1.188-0.121c-0.605,0-1.118,0.052-1.538,0.156c-0.414,0.1-0.75,0.242-1.013,0.429
					c-0.256,0.181-0.443,0.399-0.56,0.655c-0.115,0.25-0.175,0.523-0.175,0.82c0,0.313,0.06,0.576,0.175,0.785
					c0.123,0.205,0.306,0.38,0.55,0.525s0.553,0.278,0.926,0.401c0.378,0.117,0.824,0.244,1.336,0.384
					c0.507,0.141,1,0.294,1.476,0.464c0.484,0.169,0.911,0.384,1.284,0.646c0.373,0.256,0.67,0.576,0.892,0.961
					c0.226,0.384,0.34,0.864,0.34,1.44c0,1.199-0.45,2.123-1.353,2.77C388.406,343.927,387.023,344.25,385.161,344.25"/>
				<path id="path3166_9_" inkscape:connector-curvature="0" fill="#474B4C" d="M392.279,344.075l2.384-12.307h9.164l-0.263,1.363
					h-7.494l-0.769,3.947h6.969l-0.261,1.345h-6.971l-0.83,4.288h7.852l-0.262,1.363H392.279"/>
				<path id="path3168_9_" inkscape:connector-curvature="0" fill="#474B4C" d="M404.228,344.075l2.383-12.307h1.668l-2.122,10.943
					h6.219l-0.262,1.363H404.228"/>
				<path id="path3170_9_" inkscape:connector-curvature="0" fill="#474B4C" d="M414.185,344.075l2.385-12.307h9.162l-0.263,1.363
					h-7.494l-0.769,3.947h6.969l-0.261,1.345h-6.971l-0.83,4.288h7.852l-0.263,1.363H414.185"/>
				<path id="path3172_9_" inkscape:connector-curvature="0" fill="#474B4C" d="M437.444,341.132
					c-0.285,0.425-0.605,0.827-0.961,1.206c-0.355,0.377-0.763,0.709-1.222,0.994c-0.455,0.281-0.975,0.505-1.563,0.674
					c-0.582,0.162-1.25,0.244-2,0.244c-0.861,0-1.617-0.134-2.263-0.402c-0.64-0.267-1.173-0.631-1.598-1.092
					c-0.424-0.465-0.743-1.01-0.952-1.633c-0.209-0.629-0.314-1.301-0.314-2.017c0-0.724,0.079-1.41,0.235-2.062
					c0.158-0.652,0.382-1.254,0.673-1.808c0.291-0.56,0.646-1.062,1.064-1.512c0.42-0.453,0.892-0.839,1.417-1.152
					c0.529-0.314,1.105-0.557,1.729-0.725c0.624-0.175,1.285-0.263,1.983-0.263c0.751,0,1.409,0.088,1.973,0.263
					c0.565,0.168,1.049,0.393,1.451,0.673c0.4,0.279,0.725,0.599,0.969,0.96s0.422,0.734,0.532,1.117l-1.572,0.481
					c-0.086-0.273-0.22-0.536-0.402-0.786c-0.181-0.256-0.413-0.483-0.698-0.681c-0.28-0.205-0.614-0.364-1.005-0.48
					c-0.383-0.123-0.83-0.184-1.336-0.184c-0.851,0-1.607,0.156-2.271,0.472c-0.663,0.308-1.225,0.74-1.685,1.292
					c-0.461,0.547-0.81,1.199-1.048,1.957c-0.24,0.751-0.359,1.571-0.359,2.463c0,0.548,0.076,1.051,0.228,1.511
					c0.151,0.461,0.376,0.859,0.673,1.196c0.302,0.332,0.678,0.591,1.126,0.778c0.447,0.186,0.969,0.278,1.563,0.278
					c0.523,0,1.004-0.069,1.44-0.209c0.437-0.146,0.835-0.335,1.197-0.567c0.367-0.239,0.693-0.51,0.978-0.812
					c0.292-0.308,0.548-0.626,0.769-0.952L437.444,341.132"/>
				<path id="path3174_9_" inkscape:connector-curvature="0" fill="#474B4C" d="M446.004,333.132l-2.132,10.943h-1.659l2.13-10.943
					h-4.228l0.262-1.363h10.115l-0.261,1.363H446.004"/>
			</g>
			<g id="text3167">
				<path id="path3177_9_" inkscape:connector-curvature="0" fill="#474B4C" d="M491.057,344.089c-0.757,0-1.421-0.068-1.991-0.201
					c-0.565-0.14-1.047-0.342-1.442-0.603c-0.396-0.269-0.713-0.594-0.952-0.978c-0.232-0.392-0.396-0.839-0.488-1.346l1.545-0.324
					c0.076,0.361,0.196,0.677,0.358,0.943c0.164,0.269,0.382,0.493,0.655,0.673c0.274,0.175,0.612,0.307,1.014,0.394
					c0.402,0.088,0.875,0.132,1.423,0.132c0.571,0,1.084-0.038,1.537-0.114c0.455-0.082,0.839-0.212,1.154-0.393
					c0.32-0.187,0.564-0.426,0.732-0.717c0.17-0.298,0.253-0.665,0.253-1.102c0-0.296-0.048-0.549-0.148-0.76
					c-0.099-0.209-0.27-0.396-0.514-0.558c-0.246-0.17-0.578-0.326-0.996-0.472c-0.414-0.151-0.935-0.315-1.563-0.49
					c-0.513-0.139-0.996-0.294-1.45-0.462c-0.448-0.175-0.841-0.389-1.18-0.639c-0.338-0.256-0.604-0.564-0.804-0.925
					c-0.197-0.361-0.297-0.804-0.297-1.328c0-0.611,0.138-1.13,0.411-1.555c0.278-0.431,0.648-0.782,1.109-1.057
					c0.466-0.273,0.995-0.472,1.59-0.595c0.601-0.127,1.219-0.191,1.86-0.191c0.705,0,1.319,0.064,1.843,0.191
					c0.53,0.129,0.978,0.31,1.345,0.541c0.373,0.228,0.67,0.502,0.892,0.822s0.374,0.67,0.462,1.048l-1.51,0.446
					c-0.088-0.279-0.211-0.531-0.367-0.753c-0.157-0.22-0.357-0.406-0.604-0.558c-0.244-0.158-0.538-0.276-0.883-0.358
					c-0.336-0.081-0.732-0.122-1.187-0.122c-0.605,0-1.118,0.053-1.538,0.157c-0.412,0.099-0.751,0.241-1.013,0.428
					c-0.257,0.181-0.443,0.398-0.559,0.655c-0.116,0.25-0.176,0.524-0.176,0.82c0,0.315,0.06,0.578,0.176,0.787
					c0.122,0.203,0.306,0.377,0.55,0.523c0.245,0.146,0.553,0.28,0.926,0.401c0.379,0.117,0.823,0.246,1.336,0.385
					c0.507,0.14,1,0.295,1.478,0.463c0.481,0.17,0.911,0.385,1.282,0.646c0.373,0.257,0.671,0.577,0.892,0.962
					c0.228,0.384,0.342,0.864,0.342,1.44c0,1.199-0.452,2.123-1.354,2.769C494.303,343.765,492.92,344.089,491.057,344.089"/>
				<path id="path3179_9_" inkscape:connector-curvature="0" fill="#474B4C" d="M505.118,332.97l-2.131,10.943h-1.659l2.131-10.943
					h-4.228l0.262-1.362h10.114l-0.262,1.362H505.118"/>
				<path id="path3181_9_" inkscape:connector-curvature="0" fill="#474B4C" d="M516.5,343.913l-0.655-3.599h-5.582l-2.096,3.599
					h-1.816l7.406-12.306h1.896l2.551,12.306H516.5 M514.84,334.883c-0.046-0.239-0.093-0.472-0.14-0.699
					c-0.041-0.227-0.076-0.434-0.104-0.62c-0.029-0.192-0.055-0.35-0.079-0.472c-0.017-0.129-0.029-0.204-0.035-0.227
					c-0.011,0.022-0.052,0.098-0.121,0.227c-0.065,0.128-0.148,0.288-0.253,0.481c-0.106,0.185-0.222,0.396-0.351,0.628
					c-0.128,0.227-0.263,0.457-0.402,0.689l-2.357,4.123h4.603L514.84,334.883"/>
				<path id="path3183_9_" inkscape:connector-curvature="0" fill="#474B4C" d="M528.361,343.913l-2.123-5.108h-3.852l-0.987,5.108
					h-1.668l2.384-12.306h5.345c0.606,0,1.16,0.074,1.661,0.227c0.5,0.146,0.928,0.357,1.284,0.638
					c0.36,0.279,0.64,0.62,0.839,1.022c0.203,0.396,0.305,0.845,0.305,1.345c0,1.095-0.314,1.963-0.943,2.603
					c-0.63,0.642-1.558,1.046-2.786,1.215l2.34,5.257H528.361 M526.666,337.485c1.054,0,1.85-0.219,2.385-0.655
					c0.535-0.442,0.804-1.062,0.804-1.86c0-0.652-0.218-1.152-0.655-1.503c-0.431-0.349-1.078-0.523-1.939-0.523h-3.729
					l-0.882,4.542H526.666"/>
				<path id="path3185_9_" inkscape:connector-curvature="0" fill="#474B4C" d="M539.288,332.97l-2.132,10.943h-1.659l2.131-10.943
					H533.4l0.262-1.362h10.114l-0.262,1.362H539.288"/>
			</g>
			<g id="text3173" transform="matrix(0.8,0,0,0.8,178.84196,53.480205)">
				<path id="path3158_9_" inkscape:connector-curvature="0" fill="#F7F7F4" d="M883.747,207.801h-8.452l-1.162,3.964h-7.582
					l9.022-24.008h8.09l9.025,24.008h-7.762L883.747,207.801 M882.191,202.609l-2.654-8.63l-2.637,8.63H882.191"/>
			</g>
			<g id="text3185" transform="matrix(0.8,0,0,0.8,141.21719,80.844545)">
				<path id="path3155_9_" inkscape:connector-curvature="0" fill="#F7F7F4" d="M702.169,350.689h13.888
					c2.314,0,4.089,0.573,5.322,1.72c1.244,1.146,1.868,2.566,1.868,4.257c0,1.42-0.443,2.637-1.327,3.652
					c-0.59,0.677-1.451,1.212-2.588,1.605c1.725,0.416,2.992,1.13,3.799,2.146c0.819,1.005,1.228,2.271,1.228,3.799
					c0,1.245-0.289,2.363-0.868,3.357c-0.577,0.994-1.37,1.78-2.374,2.358c-0.623,0.361-1.56,0.624-2.817,0.786
					c-1.67,0.219-2.778,0.328-3.324,0.328h-12.806V350.689 M709.652,360.105h3.226c1.158,0,1.96-0.197,2.407-0.59
					c0.459-0.403,0.688-0.983,0.688-1.736c0-0.699-0.229-1.245-0.688-1.637c-0.447-0.394-1.232-0.59-2.357-0.59h-3.276V360.105
					 M709.652,369.538h3.784c1.277,0,2.178-0.223,2.703-0.671c0.524-0.458,0.785-1.068,0.785-1.835c0-0.708-0.261-1.276-0.785-1.702
					c-0.514-0.438-1.42-0.656-2.719-0.656h-3.768V369.538"/>
			</g>
			<g id="text3191" transform="matrix(0.8,0,0,0.8,125.0875,66.207045)">
				<path id="path3152_9_" inkscape:connector-curvature="0" fill="#F7F7F4" d="M607.629,266.705h8.239l4.846,8.107l4.849-8.107
					h8.188l-9.335,13.953v10.055h-7.437v-10.055L607.629,266.705"/>
			</g>
			<g id="text3179" transform="matrix(0.8,0,0,0.8,155.28437,37.707045)">
				<path id="path3161_9_" inkscape:connector-curvature="0" fill="#F7F7F4" d="M781.601,103.187h8.174l4.257,7.385l4.127-7.385
					h8.09l-7.466,11.627l8.171,12.382h-8.337l-4.733-7.715l-4.749,7.715h-8.286l8.286-12.512L781.601,103.187"/>
			</g>
		</g>
	</g>
	<linearGradient id="SVGID_1_" gradientUnits="userSpaceOnUse" x1="40" y1="42" x2="287.0001" y2="42">
		<stop  offset="0" style="stop-color:#F0F0EC"/>
		<stop  offset="1" style="stop-color:#BABAB7"/>
	</linearGradient>
	<path fill="url(#SVGID_1_)" stroke="#B3B3B3" stroke-width="2" d="M287,42.139C287,55.869,275.869,67,262.139,67H64.861
		C51.131,67,40,55.869,40,42.139v-0.277C40,28.131,51.131,17,64.861,17h197.277C275.869,17,287,28.131,287,41.861V42.139z"/>
	
		<linearGradient id="SVGID_2_" gradientUnits="userSpaceOnUse" x1="-523.0009" y1="42.001" x2="-276.0009" y2="42.001" gradientTransform="matrix(-1 0 0 1 397.0001 0)">
		<stop  offset="0" style="stop-color:#F0F0EC"/>
		<stop  offset="1" style="stop-color:#BABAB7"/>
	</linearGradient>
	<path fill="url(#SVGID_2_)" stroke="#B3B3B3" stroke-width="2" d="M920,41.861C920,28.131,908.869,17,895.139,17H697.861
		C684.131,17,673,28.131,673,41.861v0.277C673,55.869,684.131,67,697.861,67h197.277C908.869,67,920,55.869,920,42.139V41.861z"/>
	<g>
		<path fill="#808080" d="M159.586,31.422h3.444v15.988h7.756v2.884h-11.2V31.422z"/>
	</g>
	<g>
		<path fill="#808080" d="M792.361,31.674c1.287-0.224,3.22-0.392,5.207-0.392c2.717,0,4.564,0.448,5.824,1.512
			c1.037,0.868,1.625,2.184,1.625,3.78c0,2.436-1.652,4.088-3.416,4.732v0.084c1.344,0.504,2.155,1.82,2.631,3.64
			c0.588,2.352,1.093,4.536,1.484,5.264h-3.556c-0.28-0.56-0.728-2.1-1.261-4.452c-0.531-2.464-1.428-3.248-3.387-3.304h-1.736
			v7.756h-3.416V31.674z M795.777,40.019h2.043c2.324,0,3.781-1.232,3.781-3.108c0-2.072-1.457-3.024-3.697-3.024
			c-1.092,0-1.791,0.084-2.127,0.168V40.019z"/>
	</g>
</g>
<rect id="button-l" x="0" y="0" opacity="0.5" fill="none" width="320" height="72"/>
<rect id="button-r" x="640" y="0" opacity="0.5" fill="none" width="320" height="72"/>
<rect id="dpad" x="28" y="81" opacity="0.5" fill="none" width="340" height="340"/>
<rect id="button-select" x="380" y="253" opacity="0.5" fill="none" width="63" height="63"/>
<rect id="button-start" x="486" y="253" opacity="0.5" fill="none" width="63" height="63"/>
<rect id="button-y" x="623" y="195" transform="matrix(0.7071 -0.7071 0.7071 0.7071 23.876 547.6417)" opacity="0.5" fill="none" width="100" height="100"/>
<rect id="button-x" x="699" y="120" transform="matrix(0.7071 -0.7071 0.7071 0.7071 99.1675 579.4126)" opacity="0.5" fill="none" width="100" height="100"/>
<rect id="button-b" x="714" y="280" transform="matrix(0.7071 -0.7071 0.7071 0.7071 -9.5748 636.8844)" opacity="0.5" fill="none" width="100" height="100"/>
<rect id="button-a" x="790" y="204" transform="matrix(0.7071 -0.7071 0.7071 0.7071 66.4252 668.3646)" opacity="0.5" fill="none" width="100" height="100"/>
</svg>
