<?xml version="1.0" encoding="utf-8"?>
<!-- Generator: Adobe Illustrator 16.0.0, SVG Export Plug-In . SVG Version: 6.00 Build 0)  -->
<!DOCTYPE svg PUBLIC "-//W3C//DTD SVG 1.1//EN" "http://www.w3.org/Graphics/SVG/1.1/DTD/svg11.dtd">
<svg version="1.1" id="Layer_1" xmlns="http://www.w3.org/2000/svg" xmlns:xlink="http://www.w3.org/1999/xlink" x="0px" y="0px"
	 width="960px" height="480px" viewBox="0 0 960 480" enable-background="new 0 0 960 480" xml:space="preserve">
<rect fill="#F2F2F0" width="960" height="480"/>
<radialGradient id="path3212_1_" cx="-16.1816" cy="339.9512" r="132.141" gradientTransform="matrix(1.2973 0 0 1.2973 215.9724 -179.0187)" gradientUnits="userSpaceOnUse">
	<stop  offset="0" style="stop-color:#000000"/>
	<stop  offset="0.3889" style="stop-color:#DCDCDC"/>
	<stop  offset="1" style="stop-color:#EEEEE9"/>
</radialGradient>
<radialGradient id="path3212_2_" cx="-16.1816" cy="339.9512" r="131.953" gradientTransform="matrix(1.2973 0 0 1.2973 215.9724 -179.0187)" gradientUnits="userSpaceOnUse">
	<stop  offset="0" style="stop-color:#F3F3F1"/>
	<stop  offset="0.94" style="stop-color:#7F7F7E"/>
	<stop  offset="1" style="stop-color:#E6E6E3"/>
</radialGradient>
<path id="path3212" fill="url(#path3212_1_)" stroke="url(#path3212_2_)" stroke-width="3.3333" d="M364.98,262
	c0,93.889-76.111,170-170,170c-93.888,0-170-76.111-170-170c0-93.889,76.112-170,170-170C288.869,92,364.98,168.111,364.98,262z"/>
<path id="path3214" fill="#777F82" d="M923.141,263.129c0,94.812-76.858,171.671-171.67,171.671S579.8,357.941,579.8,263.129
	c0-94.811,76.859-171.67,171.671-171.67C846.281,91.459,923.141,168.318,923.141,263.129z"/>
<path id="rect3217" fill="#F4F4F1" stroke="#FDFDFA" d="M654.07,227.303l69.479-69.479c15.878-15.878,40.37-17.129,54.705-2.795l0,0
	c14.334,14.334,13.083,38.827-2.796,54.705l-69.479,69.48c-15.879,15.878-40.37,17.129-54.705,2.795l0,0
	C636.94,267.673,638.191,243.182,654.07,227.303z"/>
<path id="rect3217_1_" fill="#F4F4F1" stroke="#FDFDFA" d="M744.423,312.008l69.479-69.479
	c15.879-15.879,40.371-17.131,54.705-2.796l0,0c14.335,14.335,13.083,38.828-2.795,54.705l-69.479,69.479
	c-15.878,15.879-40.37,17.13-54.705,2.795l0,0C727.293,352.379,728.545,327.887,744.423,312.008z"/>
<path id="path3235" fill="#1A1A1A" stroke="#EBEBE8" stroke-width="0.9524" d="M708.977,256.354
	c0,18.012-14.601,32.611-32.611,32.611c-18.012,0-32.611-14.602-32.611-32.611c0-18.012,14.602-32.611,32.611-32.611
	C694.376,223.741,708.977,238.342,708.977,256.354z"/>
<linearGradient id="path3237_1_" gradientUnits="userSpaceOnUse" x1="317.3608" y1="382.2217" x2="317.3608" y2="305.5543" gradientTransform="matrix(1.0729 0 0 1.0729 335.8669 -114.9992)">
	<stop  offset="0" style="stop-color:#00DEA5"/>
	<stop  offset="1" style="stop-color:#00F8B9"/>
</linearGradient>
<path id="path3237" fill="url(#path3237_1_)" stroke="#00AB7F" stroke-width="2.1053" d="M705.87,256.354
	c0,16.295-13.21,29.506-29.506,29.506c-16.295,0-29.506-13.211-29.506-29.506c0-16.295,13.211-29.505,29.506-29.505
	C692.66,226.848,705.87,240.058,705.87,256.354z"/>
<path id="path3245" fill="#1A1A1A" stroke="#EBEBE8" stroke-width="0.9524" d="M799.895,342.188
	c0,18.012-14.602,32.611-32.611,32.611s-32.611-14.601-32.611-32.611c0-18.01,14.602-32.611,32.611-32.611
	S799.895,324.178,799.895,342.188z"/>
<path id="path3247" fill="#FFBB58" stroke="#BA853D" stroke-width="2.1053" d="M796.788,342.188
	c0,16.297-13.21,29.507-29.506,29.507s-29.506-13.21-29.506-29.507c0-16.296,13.21-29.506,29.506-29.506
	S796.788,325.893,796.788,342.188z"/>
<path id="path3251" fill="#1A1A1A" stroke="#EBEBE8" stroke-width="0.9524" d="M876.129,265.389
	c0,18.012-14.601,32.611-32.611,32.611c-18.01,0-32.61-14.602-32.61-32.611c0-18.012,14.601-32.612,32.61-32.612
	C861.528,232.777,876.129,247.377,876.129,265.389z"/>
<path id="path3253" fill="#FF4856" stroke="#C72B3E" stroke-width="2.1053" d="M873.023,265.389
	c0,16.295-13.211,29.506-29.507,29.506s-29.506-13.211-29.506-29.506c0-16.296,13.21-29.506,29.506-29.506
	S873.023,249.093,873.023,265.389z"/>
<path id="path3257" fill="#1A1A1A" stroke="#EBEBE8" stroke-width="0.9524" d="M784.646,180.117
	c0,18.012-14.602,32.612-32.611,32.612s-32.611-14.601-32.611-32.612c0-18.011,14.602-32.611,32.611-32.611
	S784.646,162.106,784.646,180.117z"/>
<path id="path3259" fill="#0075FA" stroke="#0054B3" stroke-width="2.1053" d="M781.541,180.117
	c0,16.296-13.21,29.506-29.506,29.506s-29.506-13.21-29.506-29.506c0-16.295,13.21-29.505,29.506-29.505
	S781.541,163.822,781.541,180.117z"/>
<path id="rect3307" fill="#1A1A1A" stroke="#E2E2DF" stroke-width="1.8364" d="M381.797,309.617l42.885-42.885
	c3.24-3.24,8.493-3.24,11.732,0l3.823,3.822c3.239,3.239,3.239,8.492,0,11.732l-42.886,42.885c-3.24,3.239-8.493,3.239-11.732,0
	l-3.822-3.823C378.557,318.109,378.557,312.856,381.797,309.617z"/>
<radialGradient id="rect3309_1_" cx="-39.8623" cy="-101.7988" r="32.9642" gradientTransform="matrix(1.3972 -1.4055 0.1518 0.1509 482.0803 255.373)" gradientUnits="userSpaceOnUse">
	<stop  offset="0" style="stop-color:#899194"/>
	<stop  offset="1" style="stop-color:#5E6667"/>
	<stop  offset="1" style="stop-color:#515759"/>
</radialGradient>
<path id="rect3309" fill="url(#rect3309_1_)" stroke="#252A2A" stroke-width="1.215" d="M383.546,310.823l42.169-42.169
	c2.624-2.625,6.879-2.625,9.504,0l3.097,3.097c2.625,2.624,2.625,6.879,0,9.504l-42.168,42.168c-2.625,2.625-6.88,2.625-9.504,0
	l-3.097-3.096C380.922,317.702,380.922,313.447,383.546,310.823z"/>
<path id="rect3221" fill="#1A1A1A" stroke="#8E979E" stroke-width="0.9381" d="M169.156,146.305
	c-6.867,0-12.396,5.529-12.396,12.397v65.078H91.682c-6.867,0-12.396,5.528-12.396,12.396v51.649
	c0,6.868,5.529,12.396,12.396,12.396h65.078v65.078c0,6.867,5.529,12.396,12.396,12.396h51.65c6.867,0,12.396-5.528,12.396-12.396
	v-65.078h65.078c6.867,0,12.396-5.527,12.396-12.396v-51.649c0-6.868-5.529-12.396-12.396-12.396h-65.078v-65.078
	c0-6.868-5.529-12.397-12.396-12.397H169.156z"/>
<path id="path3319" fill="#4D5254" stroke="#63686B" stroke-width="1.9144" d="M173.788,157.035c-5.439,0-9.819,4.957-9.819,11.111
	v62.549h-63.786c-5.439,0-9.818,4.956-9.818,11.112v40.326c0,6.156,4.379,11.11,9.818,11.11h63.786v62.896
	c0,6.156,4.38,11.111,9.819,11.111h41.403c5.439,0,9.818-4.955,9.818-11.111v-62.896h65.033c5.439,0,9.818-4.954,9.818-11.11
	v-40.326c0-6.156-4.379-11.112-9.818-11.112h-63.989v-62.549c0-6.154-4.379-11.111-9.819-11.111H173.788z"/>
<g id="path3924">
	
		<radialGradient id="SVGID_1_" cx="32.5864" cy="281.9746" r="22.7028" gradientTransform="matrix(1.1294 0 0 1.161 157.4392 -136.7609)" gradientUnits="userSpaceOnUse">
		<stop  offset="0" style="stop-color:#303638"/>
		<stop  offset="1" style="stop-color:#424A4F"/>
	</radialGradient>
	<path fill="url(#SVGID_1_)" d="M170.915,211.937c-2.183-4.377,1.309-11.267,1.309-11.267l7.276-14.593l7.275-14.594
		c0,0,2.911-5.636,7.276-5.636c4.366,0,7.275,5.636,7.275,5.636l7.276,14.594l7.276,14.593c0,0,3.933,6.633,1.75,11.011
		c-2.183,4.379-9.026,3.583-9.026,3.583H194.05H179.5C179.5,215.264,173.098,216.316,170.915,211.937z"/>
	<path opacity="0.8627" fill="none" stroke="#4F5457" stroke-width="2.0611" enable-background="new    " d="M170.915,211.937
		c-2.183-4.377,1.309-11.267,1.309-11.267l7.276-14.593l7.275-14.594c0,0,2.911-5.636,7.276-5.636c4.366,0,7.275,5.636,7.275,5.636
		l7.276,14.594l7.276,14.593c0,0,3.933,6.633,1.75,11.011c-2.183,4.379-9.026,3.583-9.026,3.583H194.05H179.5
		C179.5,215.264,173.098,216.316,170.915,211.937z"/>
</g>
<g id="path3924_1_">
	
		<radialGradient id="SVGID_2_" cx="32.5864" cy="191.9746" r="22.7022" gradientTransform="matrix(1.1294 0 0 -1.161 157.4392 554.3635)" gradientUnits="userSpaceOnUse">
		<stop  offset="0" style="stop-color:#303638"/>
		<stop  offset="1" style="stop-color:#424A4F"/>
	</radialGradient>
	<path fill="url(#SVGID_2_)" d="M170.915,310.154c-2.183,4.377,1.309,11.267,1.309,11.267l7.276,14.594l7.275,14.594
		c0,0,2.911,5.637,7.276,5.637c4.366,0,7.275-5.637,7.275-5.637l7.276-14.594l7.276-14.594c0,0,3.933-6.634,1.75-11.011
		c-2.183-4.378-9.026-3.583-9.026-3.583H194.05H179.5C179.5,306.827,173.098,305.775,170.915,310.154z"/>
	<path opacity="0.8627" fill="none" stroke="#4F5457" stroke-width="2.0611" enable-background="new    " d="M170.915,310.154
		c-2.183,4.377,1.309,11.267,1.309,11.267l7.276,14.594l7.275,14.594c0,0,2.911,5.637,7.276,5.637c4.366,0,7.275-5.637,7.275-5.637
		l7.276-14.594l7.276-14.594c0,0,3.933-6.634,1.75-11.011c-2.183-4.378-9.026-3.583-9.026-3.583H194.05H179.5
		C179.5,306.827,173.098,305.775,170.915,310.154z"/>
</g>
<g id="path3924_2_">
	
		<radialGradient id="SVGID_3_" cx="202.1016" cy="27.0718" r="22.7064" gradientTransform="matrix(0 -1.1294 1.161 0 92.3777 489.3)" gradientUnits="userSpaceOnUse">
		<stop  offset="0" style="stop-color:#303638"/>
		<stop  offset="1" style="stop-color:#424A4F"/>
	</radialGradient>
	<path fill="url(#SVGID_3_)" d="M145.135,284.373c-4.378,2.184-11.267-1.309-11.267-1.309l-14.594-7.275l-14.593-7.275
		c0,0-5.637-2.91-5.637-7.275s5.637-7.275,5.637-7.275l14.593-7.275l14.594-7.275c0,0,6.632-3.934,11.011-1.75
		c4.377,2.183,3.583,9.025,3.583,9.025v14.552v14.552C148.461,275.789,149.513,282.191,145.135,284.373z"/>
	<path opacity="0.8627" fill="none" stroke="#4F5457" stroke-width="2.0611" enable-background="new    " d="M145.135,284.373
		c-4.378,2.184-11.267-1.309-11.267-1.309l-14.594-7.275l-14.593-7.275c0,0-5.637-2.91-5.637-7.275s5.637-7.275,5.637-7.275
		l14.593-7.275l14.594-7.275c0,0,6.632-3.934,11.011-1.75c4.377,2.183,3.583,9.025,3.583,9.025v14.552v14.552
		C148.461,275.789,149.513,282.191,145.135,284.373z"/>
</g>
<g id="path3924_3_">
	
		<radialGradient id="SVGID_4_" cx="202.1016" cy="446.877" r="22.7001" gradientTransform="matrix(0 -1.1294 -1.161 0 783.5021 489.3)" gradientUnits="userSpaceOnUse">
		<stop  offset="0" style="stop-color:#303638"/>
		<stop  offset="1" style="stop-color:#424A4F"/>
	</radialGradient>
	<path fill="url(#SVGID_4_)" d="M243.351,284.373c4.378,2.184,11.267-1.309,11.267-1.309l14.593-7.275l14.594-7.275
		c0,0,5.636-2.91,5.636-7.275s-5.636-7.275-5.636-7.275l-14.594-7.275l-14.593-7.275c0,0-6.632-3.934-11.011-1.75
		c-4.378,2.183-3.583,9.025-3.583,9.025v14.552v14.552C240.024,275.789,238.974,282.191,243.351,284.373z"/>
	<path opacity="0.8627" fill="none" stroke="#4F5457" stroke-width="2.0611" enable-background="new    " d="M243.351,284.373
		c4.378,2.184,11.267-1.309,11.267-1.309l14.593-7.275l14.594-7.275c0,0,5.636-2.91,5.636-7.275s-5.636-7.275-5.636-7.275
		l-14.594-7.275l-14.593-7.275c0,0-6.632-3.934-11.011-1.75c-4.378,2.183-3.583,9.025-3.583,9.025v14.552v14.552
		C240.024,275.789,238.974,282.191,243.351,284.373z"/>
</g>
<g id="path3943">
	
		<radialGradient id="SVGID_5_" cx="175.1514" cy="327.3281" r="15.2264" gradientTransform="matrix(1.8397 0 0 1.8397 -127.246 -340.1868)" gradientUnits="userSpaceOnUse">
		<stop  offset="0" style="stop-color:#303638"/>
		<stop  offset="1" style="stop-color:#424A4F"/>
	</radialGradient>
	<path fill="url(#SVGID_5_)" d="M221.172,262c0,14.465-11.727,26.191-26.192,26.191S168.789,276.465,168.789,262
		s11.726-26.191,26.191-26.191S221.172,247.535,221.172,262L221.172,262z"/>
	<path opacity="0.8617" fill="none" stroke="#4F5457" stroke-width="1.45" enable-background="new    " d="M221.172,262
		c0,14.465-11.727,26.191-26.192,26.191S168.789,276.465,168.789,262s11.726-26.191,26.191-26.191S221.172,247.535,221.172,262
		L221.172,262z"/>
</g>
<path id="rect4170" fill="#1A1A1A" stroke="#E2E2DF" stroke-width="1.8364" d="M489.156,309.617l42.885-42.885
	c3.239-3.24,8.492-3.24,11.732,0l3.822,3.822c3.239,3.239,3.239,8.492,0,11.732l-42.885,42.885c-3.24,3.239-8.493,3.239-11.732,0
	l-3.822-3.823C485.916,318.109,485.916,312.856,489.156,309.617z"/>
<radialGradient id="rect4172_1_" cx="-119.6831" cy="67.8359" r="32.9544" gradientTransform="matrix(0.7986 -0.7986 0.2059 0.2059 599.9011 186.4927)" gradientUnits="userSpaceOnUse">
	<stop  offset="0" style="stop-color:#899194"/>
	<stop  offset="1" style="stop-color:#5E6667"/>
	<stop  offset="1" style="stop-color:#515759"/>
</radialGradient>
<path id="rect4172" fill="url(#rect4172_1_)" stroke="#252A2A" stroke-width="1.215" d="M490.905,310.823l42.169-42.169
	c2.624-2.625,6.879-2.625,9.503,0l3.097,3.097c2.624,2.624,2.624,6.879,0,9.504l-42.169,42.168c-2.624,2.625-6.879,2.625-9.503,0
	l-3.097-3.096C488.281,317.702,488.281,313.447,490.905,310.823z"/>
<path id="path3164" fill="#474B4C" d="M384.142,356.194c-0.765,0-1.436-0.067-2.013-0.203c-0.57-0.142-1.056-0.344-1.455-0.608
	c-0.4-0.271-0.721-0.6-0.962-0.988c-0.235-0.395-0.4-0.847-0.494-1.357l1.562-0.327c0.076,0.365,0.197,0.683,0.362,0.953
	c0.164,0.271,0.385,0.497,0.661,0.68c0.276,0.177,0.618,0.31,1.023,0.396c0.406,0.089,0.886,0.133,1.438,0.133
	c0.576,0,1.094-0.038,1.553-0.115c0.459-0.082,0.848-0.214,1.165-0.396c0.323-0.188,0.57-0.431,0.741-0.725
	c0.171-0.3,0.256-0.671,0.256-1.11c0-0.302-0.05-0.558-0.15-0.77c-0.1-0.211-0.273-0.398-0.521-0.563
	c-0.247-0.17-0.582-0.329-1.006-0.478c-0.418-0.151-0.944-0.316-1.579-0.494c-0.518-0.141-1.006-0.297-1.465-0.467
	c-0.453-0.177-0.85-0.392-1.191-0.645c-0.341-0.26-0.611-0.57-0.812-0.937c-0.2-0.364-0.3-0.812-0.3-1.341
	c0-0.618,0.138-1.142,0.414-1.57c0.283-0.436,0.656-0.792,1.121-1.067c0.471-0.276,1.006-0.478,1.605-0.601
	c0.606-0.13,1.232-0.193,1.88-0.193c0.712,0,1.332,0.063,1.861,0.193c0.535,0.129,0.988,0.312,1.359,0.547
	c0.376,0.229,0.676,0.507,0.899,0.829c0.224,0.324,0.38,0.678,0.468,1.061l-1.526,0.449c-0.088-0.282-0.212-0.535-0.37-0.76
	c-0.159-0.224-0.362-0.411-0.609-0.563c-0.247-0.159-0.544-0.279-0.891-0.361c-0.342-0.083-0.741-0.124-1.2-0.124
	c-0.612,0-1.13,0.053-1.553,0.159c-0.418,0.1-0.759,0.244-1.023,0.433c-0.259,0.183-0.447,0.402-0.565,0.661
	c-0.117,0.253-0.176,0.529-0.176,0.83c0,0.317,0.059,0.582,0.176,0.794c0.124,0.206,0.309,0.382,0.557,0.529
	c0.246,0.146,0.559,0.282,0.935,0.405c0.383,0.117,0.833,0.247,1.351,0.389c0.512,0.142,1.009,0.297,1.491,0.468
	c0.488,0.171,0.92,0.389,1.297,0.652c0.376,0.259,0.677,0.583,0.899,0.971c0.229,0.389,0.345,0.874,0.345,1.456
	c0,1.212-0.456,2.146-1.368,2.797C387.421,355.868,386.023,356.194,384.142,356.194"/>
<path id="path3166" fill="#474B4C" d="M391.332,356.019l2.409-12.433h9.256l-0.265,1.376h-7.57l-0.777,3.988h7.042l-0.265,1.358
	h-7.042l-0.838,4.332h7.933l-0.265,1.377L391.332,356.019"/>
<path id="path3168" fill="#474B4C" d="M403.403,356.019l2.407-12.433h1.687l-2.146,11.056h6.282l-0.265,1.377H403.403"/>
<path id="path3170" fill="#474B4C" d="M413.462,356.019l2.408-12.433h9.257l-0.266,1.376h-7.57l-0.776,3.988h7.041l-0.265,1.358
	h-7.041l-0.838,4.332h7.932l-0.265,1.377L413.462,356.019"/>
<path id="path3172" fill="#474B4C" d="M436.959,353.045c-0.288,0.429-0.612,0.835-0.971,1.218c-0.359,0.382-0.771,0.718-1.235,1.006
	c-0.459,0.282-0.985,0.51-1.579,0.68c-0.589,0.165-1.262,0.247-2.021,0.247c-0.871,0-1.634-0.136-2.286-0.405
	c-0.646-0.271-1.186-0.639-1.614-1.104c-0.43-0.471-0.75-1.021-0.962-1.648c-0.212-0.636-0.317-1.315-0.317-2.039
	c0-0.729,0.079-1.423,0.238-2.082c0.158-0.659,0.385-1.268,0.68-1.826c0.294-0.563,0.652-1.073,1.076-1.525
	c0.424-0.459,0.899-0.849,1.431-1.165c0.534-0.317,1.116-0.562,1.746-0.732c0.63-0.177,1.298-0.265,2.004-0.265
	c0.759,0,1.423,0.088,1.993,0.265c0.57,0.171,1.06,0.397,1.464,0.68c0.406,0.282,0.732,0.605,0.979,0.972
	c0.247,0.363,0.427,0.74,0.538,1.129l-1.588,0.484c-0.088-0.275-0.225-0.541-0.406-0.794c-0.182-0.259-0.417-0.487-0.705-0.688
	c-0.282-0.206-0.621-0.367-1.015-0.485c-0.39-0.123-0.839-0.185-1.352-0.185c-0.857,0-1.623,0.158-2.294,0.477
	c-0.671,0.312-1.238,0.746-1.703,1.307c-0.465,0.553-0.816,1.212-1.059,1.977c-0.241,0.759-0.361,1.588-0.361,2.488
	c0,0.553,0.076,1.062,0.229,1.525c0.151,0.465,0.379,0.867,0.679,1.209c0.306,0.335,0.687,0.598,1.139,0.785
	c0.453,0.188,0.979,0.282,1.579,0.282c0.529,0,1.016-0.071,1.456-0.212c0.441-0.147,0.844-0.338,1.209-0.573
	c0.37-0.241,0.7-0.515,0.988-0.821c0.294-0.312,0.553-0.632,0.776-0.961L436.959,353.045"/>
<path id="path3174" fill="#474B4C" d="M445.605,344.962l-2.152,11.057h-1.677l2.152-11.057h-4.271l0.265-1.376h10.218l-0.265,1.376
	H445.605"/>
<path id="path3177" fill="#474B4C" d="M491.117,356.031c-0.766,0-1.436-0.067-2.012-0.203c-0.57-0.141-1.057-0.344-1.455-0.608
	c-0.4-0.271-0.722-0.601-0.963-0.987c-0.234-0.396-0.399-0.849-0.493-1.359l1.562-0.326c0.076,0.365,0.197,0.684,0.361,0.953
	c0.165,0.271,0.386,0.497,0.662,0.68c0.275,0.177,0.618,0.31,1.022,0.396c0.406,0.089,0.886,0.133,1.438,0.133
	c0.576,0,1.094-0.038,1.553-0.115c0.459-0.082,0.848-0.215,1.165-0.396c0.323-0.188,0.57-0.431,0.741-0.725
	c0.171-0.3,0.256-0.671,0.256-1.111c0-0.3-0.05-0.557-0.15-0.769c-0.1-0.212-0.272-0.398-0.521-0.563
	c-0.247-0.171-0.582-0.329-1.006-0.478c-0.418-0.151-0.944-0.316-1.579-0.494c-0.519-0.141-1.006-0.297-1.465-0.468
	c-0.453-0.176-0.852-0.391-1.191-0.644c-0.341-0.259-0.611-0.571-0.812-0.937c-0.201-0.364-0.301-0.812-0.301-1.341
	c0-0.618,0.139-1.142,0.414-1.571c0.282-0.435,0.656-0.791,1.121-1.066c0.472-0.276,1.006-0.478,1.605-0.601
	c0.605-0.13,1.231-0.193,1.88-0.193c0.712,0,1.332,0.063,1.861,0.193c0.534,0.129,0.987,0.312,1.358,0.547
	c0.376,0.229,0.676,0.507,0.899,0.829c0.223,0.323,0.38,0.678,0.468,1.06l-1.526,0.45c-0.088-0.282-0.212-0.535-0.37-0.76
	c-0.158-0.224-0.361-0.41-0.608-0.563c-0.247-0.159-0.544-0.279-0.892-0.362c-0.342-0.082-0.74-0.123-1.199-0.123
	c-0.612,0-1.13,0.054-1.554,0.159c-0.418,0.1-0.759,0.244-1.023,0.432c-0.259,0.184-0.446,0.403-0.564,0.662
	c-0.117,0.253-0.176,0.529-0.176,0.829c0,0.318,0.059,0.583,0.176,0.794c0.124,0.206,0.31,0.383,0.557,0.53
	c0.246,0.146,0.56,0.282,0.936,0.405c0.383,0.118,0.833,0.247,1.352,0.389c0.512,0.141,1.009,0.297,1.49,0.468
	c0.487,0.17,0.92,0.389,1.297,0.652c0.376,0.259,0.677,0.583,0.899,0.971c0.229,0.39,0.345,0.874,0.345,1.456
	c0,1.212-0.456,2.145-1.368,2.797C494.396,355.705,493,356.031,491.117,356.031"/>
<path id="path3179" fill="#474B4C" d="M505.323,344.799l-2.152,11.057h-1.677l2.152-11.057h-4.271l0.265-1.376h10.218l-0.266,1.376
	H505.323"/>
<path id="path3181" fill="#474B4C" d="M516.82,355.854l-0.661-3.635h-5.64l-2.116,3.635h-1.836l7.481-12.432h1.915l2.576,12.432
	H516.82 M515.145,346.731c-0.048-0.241-0.095-0.478-0.142-0.706c-0.041-0.229-0.076-0.438-0.104-0.627
	c-0.03-0.193-0.058-0.354-0.08-0.477c-0.019-0.13-0.029-0.206-0.035-0.229c-0.012,0.022-0.053,0.1-0.123,0.229
	c-0.065,0.129-0.15,0.291-0.256,0.485c-0.106,0.188-0.225,0.398-0.354,0.635c-0.129,0.229-0.265,0.462-0.405,0.697l-2.383,4.165
	h4.65L515.145,346.731"/>
<path id="path3183" fill="#474B4C" d="M528.803,355.854l-2.144-5.16h-3.893l-0.997,5.16h-1.686l2.409-12.432h5.399
	c0.611,0,1.17,0.076,1.677,0.229c0.506,0.146,0.938,0.36,1.297,0.644c0.365,0.282,0.646,0.627,0.848,1.032
	c0.206,0.399,0.31,0.854,0.31,1.358c0,1.105-0.317,1.982-0.953,2.63c-0.635,0.646-1.573,1.056-2.814,1.227l2.365,5.312
	L528.803,355.854 M527.091,349.36c1.065,0,1.868-0.222,2.409-0.661c0.541-0.447,0.812-1.074,0.812-1.88
	c0-0.658-0.222-1.164-0.661-1.519c-0.437-0.353-1.089-0.529-1.959-0.529h-3.769l-0.892,4.589H527.091"/>
<path id="path3185" fill="#474B4C" d="M539.841,344.799l-2.151,11.057h-1.678l2.153-11.057h-4.271l0.265-1.376h10.218l-0.266,1.376
	H539.841"/>
<path id="path3158" fill="#F7F7F4" d="M889.929,230.395H883.1l-0.939,3.203h-6.128l7.293-19.402h6.538l7.293,19.402h-6.273
	L889.929,230.395 M888.671,226.199l-2.144-6.975l-2.131,6.975H888.671"/>
<path id="path3155" fill="#F7F7F4" d="M705.176,373.515H716.4c1.869,0,3.304,0.464,4.301,1.391c1.006,0.927,1.509,2.073,1.509,3.44
	c0,1.146-0.356,2.131-1.071,2.951c-0.477,0.547-1.174,0.979-2.092,1.297c1.396,0.336,2.418,0.913,3.071,1.734
	c0.661,0.812,0.992,1.835,0.992,3.07c0,1.006-0.233,1.909-0.701,2.713c-0.468,0.803-1.107,1.438-1.919,1.905
	c-0.503,0.291-1.262,0.504-2.276,0.636c-1.351,0.177-2.246,0.266-2.688,0.266h-10.351V373.515 M711.225,381.125h2.606
	c0.936,0,1.584-0.159,1.946-0.477c0.369-0.326,0.556-0.795,0.556-1.403c0-0.564-0.186-1.006-0.556-1.323
	c-0.362-0.316-0.997-0.477-1.906-0.477h-2.646V381.125 M711.225,388.748h3.058c1.032,0,1.761-0.181,2.184-0.542
	c0.424-0.371,0.636-0.865,0.636-1.482c0-0.573-0.212-1.031-0.636-1.377c-0.414-0.353-1.146-0.528-2.196-0.528h-3.044
	L711.225,388.748"/>
<path id="path3152" fill="#F7F7F4" d="M612.479,291.855h6.657l3.917,6.552l3.918-6.552h6.618l-7.544,11.275v8.127h-6.01v-8.127
	L612.479,291.855"/>
<path id="path3161" fill="#F7F7F4" d="M783.581,129.915h6.604l3.441,5.969l3.336-5.969h6.538l-6.036,9.397l6.604,10.006h-6.736
	l-3.825-6.234l-3.838,6.234h-6.697l6.697-10.112L783.581,129.915"/>
<linearGradient id="SVGID_6_" gradientUnits="userSpaceOnUse" x1="65" y1="380" x2="405" y2="380" gradientTransform="matrix(-1 0 0 -1 425 415)">
	<stop  offset="0" style="stop-color:#F0F0EC"/>
	<stop  offset="1" style="stop-color:#BABAB7"/>
</linearGradient>
<path fill="url(#SVGID_6_)" stroke="#B3B3B3" stroke-width="2" d="M20,35c0,13.807,11.193,25,25,25h290c13.807,0,25-11.193,25-25
	l0,0c0-13.807-11.193-25-25-25H45C31.193,10,20,21.193,20,35L20,35z"/>
<path fill="#808080" d="M185.086,26.128h3.444v15.988h7.756V45h-11.2V26.128z"/>
<linearGradient id="SVGID_7_" gradientUnits="userSpaceOnUse" x1="516" y1="380" x2="856" y2="380" gradientTransform="matrix(1 0 0 -1 84 415)">
	<stop  offset="0" style="stop-color:#F0F0EC"/>
	<stop  offset="1" style="stop-color:#BABAB7"/>
</linearGradient>
<path fill="url(#SVGID_7_)" stroke="#B3B3B3" stroke-width="2" d="M940,35c0,13.807-11.193,25-25,25H625c-13.807,0-25-11.193-25-25
	l0,0c0-13.807,11.193-25,25-25h290C928.807,10,940,21.193,940,35L940,35z"/>
<path fill="#808080" d="M764.021,26.38c1.288-0.224,3.221-0.392,5.209-0.392c2.716,0,4.562,0.448,5.822,1.512
	c1.036,0.868,1.624,2.184,1.624,3.78c0,2.436-1.65,4.088-3.416,4.732v0.084c1.345,0.504,2.156,1.82,2.633,3.64
	c0.589,2.352,1.093,4.536,1.483,5.264h-3.556c-0.28-0.56-0.729-2.1-1.261-4.452c-0.531-2.464-1.429-3.248-3.389-3.304h-1.735V45
	h-3.416L764.021,26.38L764.021,26.38z M767.438,34.724h2.045c2.322,0,3.778-1.232,3.778-3.108c0-2.072-1.456-3.024-3.694-3.024
	c-1.093,0-1.792,0.084-2.129,0.168V34.724z"/>
<rect id="button-l" opacity="0" fill="#F2F2F0" width="380" height="72"/>
<rect id="button-r" x="580" opacity="0" fill="#F2F2F0" width="380" height="72"/>
<rect id="dpad" x="24.98" y="92" opacity="0" fill="#F2F2F0" width="340" height="340"/>
<rect id="button-select" x="379.367" y="264.303" opacity="0" fill="#F2F2F0" width="63.3" height="63.299"/>
<rect id="button-start" x="486.64" y="264.303" opacity="0" fill="#F2F2F0" width="63.3" height="63.299"/>
<rect id="button-x" x="702.035" y="130.117" transform="matrix(0.7071 -0.7071 0.7071 0.7071 92.9039 584.5243)" opacity="0" fill="#F2F2F0" width="100" height="100"/>
<rect id="button-a" x="793.517" y="215.388" transform="matrix(0.7071 -0.7071 0.7071 0.7071 59.4025 674.1875)" opacity="0" fill="#F2F2F0" width="100" height="100"/>
<rect id="button-y" x="626.364" y="206.353" transform="matrix(0.7071 -0.7071 0.7071 0.7071 16.8332 553.3459)" opacity="0" fill="#F2F2F0" width="100" height="100"/>
<rect id="button-b" x="717.282" y="292.187" transform="matrix(0.7071 -0.7071 0.7071 0.7071 -17.2313 642.7749)" opacity="0" fill="#F2F2F0" width="100" height="100"/>
</svg>
